<?xml version="1.0" encoding="utf-8"?>
<!-- Generator: Adobe Illustrator 22.1.0, SVG Export Plug-In . SVG Version: 6.00 Build 0)  -->
<svg version="1.1" id="图层_2" xmlns="http://www.w3.org/2000/svg" xmlns:xlink="http://www.w3.org/1999/xlink" x="0px" y="0px"
	 viewBox="0 0 18 18" style="enable-background:new 0 0 18 18;" xml:space="preserve">
<g>
	<path d="M11.2,10.1h4.1l-0.2,2.1h-4.2l-0.2,2.3c-0.1,0.7-0.3,1.3-0.8,1.8C9.5,16.7,8.9,17,8.1,17c-1.8,0-2.7-0.8-2.7-2.4
		c0-0.1,0-0.3,0-0.6l2.4-0.4c-0.1,0.1-0.2,0.2-0.3,0.4c-0.1,0.2-0.1,0.4-0.1,0.5c0,0.1,0.1,0.2,0.2,0.3c0.1,0.1,0.2,0.1,0.4,0.1
		c0.2,0,0.3-0.1,0.4-0.2c0.1-0.1,0.1-0.3,0.2-0.6l0.2-1.9H3.9l0.2-2.1h4.7l1.5-1.6c0,0,0-0.1,0-0.1c0,0,0-0.1,0-0.1c0,0-0.1,0-0.1,0
		H6.7l0.2-1.8H12c0.4,0,0.8,0.1,1,0.3c0.2,0.2,0.4,0.5,0.4,0.8c0,0.4-0.2,0.7-0.5,1L11.2,10.1z M14.3,3.4c0.6,0,1,0.1,1.3,0.4
		c0.3,0.3,0.4,0.7,0.4,1.1l-0.2,2.7l-2.4-1c0.1-0.1,0.3-0.3,0.4-0.4c0.1-0.2,0.1-0.3,0.1-0.4c0-0.1,0-0.2-0.1-0.3s-0.1-0.1-0.2-0.1
		H6.8L6.6,7.3H4.5l0.4-3.9h4.4C9.1,3,8.9,2.7,8.6,2.4l2.6-0.5c0.2,0.4,0.4,0.9,0.4,1.5H14.3z"/>
</g>
</svg>
